<svg width="192" height="192" viewBox="0 0 192 192" fill="none" xmlns="http://www.w3.org/2000/svg">
  <rect width="192" height="192" rx="36" fill="#047ec5"/>
  
  <!-- Water ripples/waves as subtle background -->
  <path d="M20 140 Q40 135 60 140 Q80 145 100 140 Q120 135 140 140 Q160 145 180 140" stroke="white" stroke-width="2" fill="none" opacity="0.2"/>
  <path d="M10 155 Q30 150 50 155 Q70 160 90 155 Q110 150 130 155 Q150 160 170 155 Q190 150 210 155" stroke="white" stroke-width="2" fill="none" opacity="0.15"/>
  
  <!-- Small bubbles -->
  <circle cx="40" cy="50" r="3" fill="white" opacity="0.3"/>
  <circle cx="150" cy="40" r="2" fill="white" opacity="0.25"/>
  <circle cx="160" cy="65" r="2.5" fill="white" opacity="0.2"/>
  <circle cx="35" cy="75" r="2" fill="white" opacity="0.2"/>
  
  <!-- Main "S" letter -->
  <text x="50%" y="50%" text-anchor="middle" dy="0.35em" fill="white" font-family="Arial, sans-serif" font-weight="bold" font-size="120">S</text>
  
  <!-- Small swimming goggles icon in corner -->
  <g transform="translate(145, 25)" opacity="0.4">
    <circle cx="0" cy="0" r="8" fill="none" stroke="white" stroke-width="1.5"/>
    <circle cx="12" cy="0" r="8" fill="none" stroke="white" stroke-width="1.5"/>
    <line x1="8" y1="0" x2="4" y2="0" stroke="white" stroke-width="1.5"/>
  </g>
</svg>